# 3ds Max Wavefront OBJ Exporter v0.97b - (c)2007 guruware
# File Created: 05.12.2015 18:01:18

mtllib rock3.mtl

#
# object Minor_Rock
#

v  -3.6828 0.2729 -1.2482
v  -0.1056 0.4574 -5.9116
v  1.1439 -1.9501 -1.1561
v  5.9782 0.1530 -1.0297
v  2.1823 -2.8057 2.6544
v  0.5954 8.6827 4.9371
v  6.7554 8.1844 1.6201
v  0.3504 11.4692 -0.3225
v  0.2974 8.8445 -6.1624
v  -5.0779 9.6911 -2.4545
v  6.6513 2.8143 4.9385
v  -0.1746 2.6945 7.2394
v  -5.6428 3.4776 5.3324
v  7.6866 4.0140 -7.4505
v  10.6050 4.7979 -2.3269
v  -4.9675 4.1753 -7.2986
v  2.1465 3.3548 -9.7498
v  -7.8371 4.3393 0.3485
v  -2.4260 -1.7497 2.7566
v  -3.1171 0.6110 -5.4112
v  4.7808 0.3685 -5.1038
v  5.6776 -1.0891 3.3393
v  -4.4237 9.5424 4.0099
v  6.3052 7.0485 5.0996
v  5.4906 7.9501 -5.0846
v  -5.0708 8.5617 -6.2220
# 26 vertices

vn -0.3893 -0.8590 -0.3326
vn 0.3870 -0.8715 -0.3011
vn 0.3029 0.8479 0.4351
vn -0.1370 0.9040 -0.4050
vn 0.2769 -0.5425 0.7931
vn -0.2568 0.3754 0.8906
vn 0.6472 -0.7170 -0.2589
vn 0.7992 0.3047 0.5181
vn -0.3113 -0.6616 -0.6821
vn 0.2497 0.5872 -0.7699
vn -0.6576 -0.7356 0.1624
vn -0.8961 0.2827 -0.3423
vn -0.2239 -0.9622 -0.1550
vn -0.3923 -0.8647 -0.3136
vn -0.0656 -0.9938 -0.0896
vn 0.3971 -0.9029 -0.1645
vn 0.0605 -0.8840 -0.4635
vn 0.4640 -0.8600 -0.2126
vn -0.3303 0.9423 0.0551
vn 0.0654 0.8830 0.4648
vn 0.2511 0.9101 0.3296
vn 0.2356 0.8856 -0.4002
vn 0.4818 0.8678 -0.1212
vn -0.0472 0.9568 -0.2869
vn -0.3415 -0.5761 0.7426
vn -0.1369 -0.6682 0.7312
vn 0.0055 -0.3803 0.9248
vn 0.0735 0.3496 0.9340
vn 0.3196 -0.0099 0.9475
vn -0.1370 0.2373 0.9617
vn 0.8563 -0.3638 0.3666
vn 0.6772 -0.7187 -0.1577
vn 0.6798 -0.6942 -0.2365
vn 0.5720 0.8089 -0.1362
vn 0.6320 0.6266 -0.4559
vn 0.9856 0.0748 0.1519
vn 0.3467 -0.6873 -0.6383
vn 0.0794 -0.8175 -0.5705
vn -0.1654 -0.5272 -0.8335
vn -0.0193 0.5424 -0.8399
vn -0.2948 0.2212 -0.9296
vn 0.2603 0.6000 -0.7565
vn -0.7824 -0.5554 -0.2817
vn -0.7207 -0.6762 -0.1529
vn -0.8512 -0.5248 0.0021
vn -0.8625 0.4964 0.0987
vn -0.8642 0.2667 0.4266
vn -0.9997 -0.0249 0.0056
# 48 vertex normals

vt 1.0000 0.5000 0.0000
vt 0.5000 1.0000 0.0000
vt 0.5000 0.5000 0.0000
vt 0.0000 0.5000 0.0000
vt 0.5000 0.0000 0.0000
vt 1.0000 0.0000 0.0000
vt 1.0000 1.0000 0.0000
vt 0.0000 1.0000 0.0000
vt 0.0000 0.0000 0.0000
# 9 texture coords

g Minor_Rock
usemtl wire_115115115
s off
f 1/1/1 2/2/1 3/3/1 
f 4/4/2 5/5/2 3/3/2 
f 6/5/3 7/1/3 8/3/3 
f 9/2/4 10/4/4 8/3/4 
f 5/5/5 11/1/5 12/3/5 
f 6/2/6 13/4/6 12/3/6 
f 4/5/7 14/1/7 15/3/7 
f 7/2/8 11/4/8 15/3/8 
f 2/5/9 16/1/9 17/3/9 
f 9/2/10 14/4/10 17/3/10 
f 1/5/11 13/1/11 18/3/11 
f 10/2/12 16/4/12 18/3/12 
f 3/3/13 5/5/13 19/6/13 
f 19/6/14 1/1/14 3/3/14 
f 1/1/15 20/7/15 2/2/15 
f 21/8/16 4/4/16 3/3/16 
f 3/3/17 2/2/17 21/8/17 
f 4/4/18 22/9/18 5/5/18 
f 8/3/19 10/4/19 23/9/19 
f 23/9/20 6/5/20 8/3/20 
f 6/5/21 24/6/21 7/1/21 
f 25/7/22 9/2/22 8/3/22 
f 8/3/23 7/1/23 25/7/23 
f 9/2/24 26/8/24 10/4/24 
f 12/3/25 13/4/25 19/9/25 
f 19/9/26 5/5/26 12/3/26 
f 5/5/27 22/6/27 11/1/27 
f 24/7/28 6/2/28 12/3/28 
f 12/3/29 11/1/29 24/7/29 
f 6/2/30 23/8/30 13/4/30 
f 15/3/31 11/4/31 22/9/31 
f 22/9/32 4/5/32 15/3/32 
f 4/5/33 21/6/33 14/1/33 
f 25/7/34 7/2/34 15/3/34 
f 15/3/35 14/1/35 25/7/35 
f 7/2/36 24/8/36 11/4/36 
f 17/3/37 14/4/37 21/9/37 
f 21/9/38 2/5/38 17/3/38 
f 2/5/39 20/6/39 16/1/39 
f 26/7/40 9/2/40 17/3/40 
f 17/3/41 16/1/41 26/7/41 
f 9/2/42 25/8/42 14/4/42 
f 18/3/43 16/4/43 20/9/43 
f 20/9/44 1/5/44 18/3/44 
f 1/5/45 19/6/45 13/1/45 
f 23/7/46 10/2/46 18/3/46 
f 18/3/47 13/1/47 23/7/47 
f 10/2/48 26/8/48 16/4/48 
# 48 faces

